<svg id="camera1-logo" preserveAspectRatio="xMinYMin meet" width="353pt" height="251pt" viewBox="0 0 353 251" version="1.1" xmlns="http://www.w3.org/2000/svg">
	<g>
		<path d=" M 0.00 0.00 L 231.88 0.00 C 207.90 17.58 184.09 35.40 160.09 52.96 C 161.47 55.34 162.87 57.72 164.27 60.10 C 171.54 55.78 178.54 51.03 185.86 46.80 C 190.08 44.52 195.06 42.68 199.89 43.87 C 205.92 45.45 208.79 51.67 211.18 56.85 C 214.30 65.34 216.32 74.21 218.35 83.02 C 226.94 119.69 236.03 156.25 244.36 192.99 C 246.10 202.34 248.48 213.27 242.56 221.64 C 238.15 227.12 231.22 229.75 224.67 231.69 C 218.68 233.56 212.60 235.11 206.52 236.65 C 207.11 239.05 207.70 241.45 208.29 243.85 C 219.71 241.67 230.86 238.28 242.26 235.98 C 265.46 230.19 288.80 225.03 311.98 219.19 C 312.00 229.79 311.99 240.40 311.99 251.00 L 150.98 251.00 C 159.63 243.13 165.75 232.97 170.89 222.57 C 168.73 221.26 166.55 219.99 164.37 218.72 C 159.10 225.30 153.27 231.69 145.80 235.80 C 137.43 240.02 127.52 242.24 118.34 239.46 C 106.76 236.30 97.80 227.42 91.09 217.85 C 83.89 207.48 78.72 195.81 74.93 183.81 C 71.80 171.77 68.38 159.61 68.28 147.07 C 68.18 140.19 68.06 132.81 71.74 126.70 C 75.15 120.22 83.30 116.90 90.31 118.72 C 94.82 120.25 97.94 124.45 99.07 128.96 C 101.70 137.77 103.36 147.97 110.92 154.10 C 117.29 159.36 126.42 158.47 133.64 155.60 C 139.84 153.33 145.75 148.30 146.65 141.44 C 148.39 128.60 140.14 115.61 128.37 110.64 C 113.85 104.24 97.23 105.36 82.20 109.28 C 64.39 113.59 47.83 124.16 37.63 139.55 C 29.49 151.43 25.40 165.71 24.62 180.01 C 23.42 205.59 31.48 232.35 49.47 251.00 L 0.00 251.00 L 0.00 0.00 Z" />
		<path d=" M 255.37 0.00 L 311.98 0.00 C 311.92 68.28 312.11 136.55 311.88 204.83 C 308.17 202.34 304.92 199.04 303.20 194.85 C 299.89 186.83 297.76 178.37 296.00 169.89 C 282.32 113.29 269.10 56.58 255.37 0.00 Z" />
		<path d=" M 322.18 11.00 C 328.21 2.23 342.82 2.50 348.78 11.23 C 352.85 16.20 352.60 23.16 350.85 29.01 C 346.79 29.12 342.74 29.23 338.68 29.35 C 340.36 26.40 342.86 22.75 340.67 19.38 C 338.88 15.55 333.09 15.37 330.80 18.83 C 327.92 22.10 330.13 26.50 332.43 29.38 C 328.36 29.22 324.29 29.15 320.23 28.97 C 318.72 23.02 318.36 16.20 322.18 11.00 Z" />
		<path d=" M 319.69 29.23 C 330.43 32.59 340.93 36.66 351.63 40.14 C 351.63 44.46 351.62 48.78 351.66 53.11 C 341.26 56.73 330.92 60.49 320.55 64.18 C 330.86 66.17 341.28 67.47 351.63 69.20 C 351.63 73.22 351.63 77.24 351.64 81.26 C 346.01 82.65 340.53 84.65 334.78 85.49 C 340.52 86.56 346.01 88.66 351.64 90.17 C 351.63 94.15 351.63 98.13 351.63 102.12 C 340.96 103.76 330.28 105.43 319.65 107.34 C 319.62 103.54 319.62 99.73 319.64 95.93 C 325.28 95.41 330.91 94.85 336.57 94.43 C 330.94 92.57 325.21 91.06 319.63 89.09 C 319.63 86.75 319.63 84.41 319.63 82.07 C 325.44 80.17 331.30 78.33 337.30 77.14 C 331.39 76.80 325.51 76.10 319.63 75.45 C 319.63 67.63 319.62 59.81 319.64 51.99 C 320.92 51.61 322.20 51.22 323.49 50.84 C 323.50 48.11 323.50 45.38 323.51 42.66 C 322.21 42.28 320.91 41.92 319.62 41.55 C 319.63 37.45 319.61 33.34 319.69 29.23 M 331.32 48.94 C 334.46 48.11 337.62 47.36 340.80 46.67 C 337.65 45.99 334.50 45.29 331.36 44.56 C 331.35 46.02 331.33 47.48 331.32 48.94 Z" />
		<path d=" M 319.67 109.50 C 330.31 109.49 340.95 109.50 351.59 109.50 C 351.61 116.72 351.60 123.94 351.60 131.16 C 348.59 131.17 345.58 131.17 342.58 131.16 C 342.57 127.94 342.56 124.72 342.57 121.50 C 341.92 121.50 340.62 121.50 339.97 121.50 C 339.94 124.42 339.94 127.34 339.94 130.27 C 337.09 130.25 334.23 130.25 331.38 130.25 C 331.36 127.33 331.36 124.42 331.36 121.51 C 330.62 121.50 329.14 121.49 328.40 121.49 C 328.39 124.82 328.38 128.15 328.38 131.49 C 325.47 131.49 322.57 131.49 319.67 131.49 C 319.66 124.16 319.66 116.83 319.67 109.50 Z" />
		<path d=" M 319.64 134.75 C 330.30 134.74 340.96 134.75 351.62 134.75 C 351.32 141.41 352.45 148.24 350.76 154.76 C 349.18 160.49 342.57 163.56 337.04 161.76 C 334.29 161.28 333.30 158.45 332.03 156.36 C 328.81 158.81 325.48 161.11 322.09 163.32 C 331.91 166.84 341.79 170.17 351.62 173.64 C 351.64 177.99 351.65 182.34 351.62 186.69 C 340.87 190.18 330.27 194.13 319.66 198.02 C 319.62 193.86 319.64 189.71 319.60 185.56 C 320.90 185.14 322.19 184.72 323.50 184.31 C 323.51 181.47 323.50 178.64 323.49 175.81 C 322.20 175.60 320.92 175.38 319.64 175.17 C 319.62 167.25 319.64 159.32 319.63 151.40 C 322.91 149.67 326.21 148.01 329.50 146.30 C 326.21 146.22 322.92 146.21 319.64 146.21 C 319.63 142.39 319.63 138.57 319.64 134.75 M 337.27 146.23 C 337.71 147.86 337.62 150.69 339.97 150.67 C 342.43 150.93 342.34 147.95 342.88 146.33 C 341.01 146.27 339.14 146.24 337.27 146.23 M 331.35 178.07 C 331.34 179.43 331.34 180.80 331.34 182.16 C 334.49 181.51 337.65 180.88 340.81 180.22 C 337.66 179.48 334.50 178.78 331.35 178.07 Z" />
		<path d=" M 332.29 206.42 C 337.44 203.77 343.93 208.42 343.61 214.04 C 343.78 219.61 337.12 223.88 332.15 221.19 C 325.97 218.80 326.16 208.74 332.29 206.42 Z" />
		<path d=" M 339.95 230.71 C 343.42 233.43 345.55 237.53 349.19 240.12 C 349.20 242.12 349.21 244.12 349.22 246.13 C 340.47 246.17 331.72 246.09 322.97 246.15 C 321.36 245.80 320.58 247.30 319.72 248.32 C 319.62 243.02 319.66 237.71 319.68 232.41 L 320.85 232.45 C 320.86 233.21 320.90 234.73 320.91 235.49 C 328.17 235.52 335.42 235.46 342.68 235.53 C 341.70 233.96 340.74 232.38 339.95 230.71 Z" />
	</g>
</svg>
